<svg id="Capa_1" data-name="Capa 1" xmlns="http://www.w3.org/2000/svg" xmlns:xlink="http://www.w3.org/1999/xlink" viewBox="0 0 1366 62"><defs><style>.cls-1{fill:none;}.cls-2{clip-path:url(#clip-path);}.cls-3{fill:#666;isolation:isolate;}.cls-4{fill:#fff;}.cls-5{clip-path:url(#clip-path-2);}</style><clipPath id="clip-path"><rect class="cls-1" x="-312" y="107" width="1366" height="102"/></clipPath><clipPath id="clip-path-2"><path class="cls-1" d="M749.07,30.76a.83.83,0,0,1-.72,1H736.53c-.42-.06-1-.12-1.8-.3a3.2,3.2,0,0,1-1.38-1,5.07,5.07,0,0,1,0-6.48,3.2,3.2,0,0,1,1.38-1l1.8-.3h11.58a.78.78,0,0,1,.9.72v.24a.83.83,0,0,1-.72,1H736.77a4.63,4.63,0,0,0-.9.12c-1.14.24-1.68,1.08-1.68,2.46a2.26,2.26,0,0,0,1.68,2.52,4.63,4.63,0,0,0,.9.12h11.28a.83.83,0,0,1,1,.72c.12,0,.12.06.06.18Z"/></clipPath></defs><title>footer_Smartweb</title><g class="cls-2"><image width="1440" height="900" transform="translate(-322 -93) scale(0.96)" xlink:href="../../header_art.jpg"/></g><g id="Capa_2" data-name="Capa 2"><g id="Arte"><rect class="cls-3" width="1366" height="62"/><path class="cls-4" d="M770.38,35.8v-.24h-.54a.54.54,0,0,1-.3-.06.42.42,0,0,1-.36-.36.76.76,0,0,1-.06-.36v-.42a.76.76,0,0,1,.06-.36.45.45,0,0,1,.12-.24.31.31,0,0,1,.24-.12.54.54,0,0,1,.3-.06h.54v-.24h-.84c-.12,0-.18.06-.3.12s-.18.12-.24.18-.12.18-.12.3a1,1,0,0,0-.06.42v.42a1,1,0,0,0,.06.42.46.46,0,0,0,.12.3.83.83,0,0,0,.24.18c.06.06.18.06.3.12h.84Zm1.8-.72v-.24a.51.51,0,0,0-.12-.42.6.6,0,0,0-.24-.3,1,1,0,0,0-.84,0,.6.6,0,0,0-.24.3,1.11,1.11,0,0,0-.12.42v.24a.72.72,0,0,0,.12.48.6.6,0,0,0,.24.3,1,1,0,0,0,.84,0,.6.6,0,0,0,.24-.3A.81.81,0,0,0,772.18,35.08Zm-.3,0a.45.45,0,0,1-.06.3c-.06.06-.06.12-.18.18a.45.45,0,0,1-.3.06.54.54,0,0,1-.3-.06l-.18-.18a.65.65,0,0,1-.06-.3v-.24a.45.45,0,0,1,.06-.3c.06-.06.06-.12.18-.18a.45.45,0,0,1,.3-.06.54.54,0,0,1,.3.06l.18.18a.54.54,0,0,1,.06.3Zm2.22,0v-.24a.51.51,0,0,0-.12-.42.6.6,0,0,0-.24-.3,1.11,1.11,0,0,0-.42-.12.57.57,0,0,0-.42.12.6.6,0,0,0-.24.3,1.11,1.11,0,0,0-.12.42v.24a.72.72,0,0,0,.12.48.6.6,0,0,0,.24.3,1.11,1.11,0,0,0,.42.12.57.57,0,0,0,.42-.12.6.6,0,0,0,.24-.3A.81.81,0,0,0,774.1,35.08Zm-.3,0a.45.45,0,0,1-.06.3c-.06.06-.06.12-.18.18a.45.45,0,0,1-.3.06.54.54,0,0,1-.3-.06l-.18-.18a.65.65,0,0,1-.06-.3v-.24a.45.45,0,0,1,.06-.3c.06-.06.06-.12.18-.18a.45.45,0,0,1,.3-.06.54.54,0,0,1,.3.06l.18.18a.54.54,0,0,1,.06.3Zm1.68-.84V34a.76.76,0,0,0-.36.06c-.12,0-.18.06-.3.12v-.12h-.3v1.8h.3V34.42c.06,0,.06-.06.12-.06l.18-.06.18-.06Zm1.68,1.62V33.28h-.3V34l-.18-.06h-.24a.54.54,0,0,0-.3.06.45.45,0,0,0-.24.12c-.06.06-.12.18-.18.24a.89.89,0,0,0-.06.42v.3a1,1,0,0,0,.06.42.47.47,0,0,0,.24.24.76.76,0,0,0,.36.06h.18l.18-.06.12-.06v.06Zm-.3-.36a.22.22,0,0,1-.18.06c-.06,0-.18.06-.24.06a.46.46,0,0,1-.3-.12.87.87,0,0,1-.12-.42v-.6c0-.06.06-.12.12-.18a.19.19,0,0,1,.12-.06h.54V35.5Zm1.08.36v-1.8h-.3v1.8Zm0-2.16v-.42h-.3v.42Zm2,2.16V34.42c0-.06-.06-.18-.06-.24s-.12-.12-.18-.12a.54.54,0,0,0-.3-.06h-.18l-.18.06-.18.12v-.12h-.3v1.8h.3V34.42c.12-.06.24-.06.3-.12s.18-.06.24-.06a.22.22,0,0,1,.18.06l.12.12V35.8Zm1.8,0V34.42c0-.06-.06-.12-.06-.18a.13.13,0,0,0-.12-.12.22.22,0,0,0-.18-.06h-.84v.24h.78c.06,0,.12,0,.12.06s.06.06.06.12v.3h-.66c-.12,0-.18.06-.24.06l-.18.18a.45.45,0,0,0-.06.3v.06a.54.54,0,0,0,.06.3l.18.18a.54.54,0,0,0,.3.06h.24c.06,0,.12-.06.18-.06l.12-.06v.12h.3Zm-.3-.36-.12.06-.18.06h-.36c-.06,0-.06-.06-.12-.06a.22.22,0,0,1-.06-.18v-.24c0-.06.06-.06.12-.12s.12-.06.18-.06h.54Zm1.92.3v-.24h-.66a.21.21,0,0,1-.12-.06c-.06-.06-.06-.12-.12-.18s-.06-.18,0-.3v-.6c0-.06.06-.12.12-.18s.12-.06.18-.12h.66v-.24h-.54a.57.57,0,0,0-.42.12.6.6,0,0,0-.24.3,1,1,0,0,0-.06.42V35a.89.89,0,0,0,.06.42.6.6,0,0,0,.24.3.87.87,0,0,0,.42.12h.54Zm.72,0V34h-.3v1.8Zm0-2.16v-.42h-.3v.42Zm2,1.38v-.24a.51.51,0,0,0-.12-.42.6.6,0,0,0-.24-.3,1,1,0,0,0-.84,0,.6.6,0,0,0-.24.3,1.11,1.11,0,0,0-.12.42V35a.72.72,0,0,0,.12.48.6.6,0,0,0,.24.3,1,1,0,0,0,.84,0,.6.6,0,0,0,.24-.3A1.41,1.41,0,0,0,786.16,35Zm-.3,0a.45.45,0,0,1-.06.3c-.06.06-.06.12-.18.18a.45.45,0,0,1-.3.06.54.54,0,0,1-.3-.06l-.18-.18a.65.65,0,0,1-.06-.3v-.24a.45.45,0,0,1,.06-.3c.06-.06.06-.12.18-.18a.45.45,0,0,1,.3-.06.54.54,0,0,1,.3.06l.18.18a.54.54,0,0,1,.06.3Zm.06-1.74h-.36l-.42.54h.3Zm2.16,2.52V34.36c0-.06-.06-.18-.06-.24s-.12-.12-.18-.12a.54.54,0,0,0-.3-.06h-.18l-.18.06-.18.12V34h-.3v1.8h.3V34.36c.12-.06.24-.06.3-.12s.18-.06.24-.06a.22.22,0,0,1,.18.06l.12.12v1.38Z"/><path class="cls-4" d="M790.84,35.8V34.54h-.3v1h-.36a.54.54,0,0,1-.3-.06.45.45,0,0,1-.24-.12.31.31,0,0,1-.12-.24.76.76,0,0,1-.06-.36v-.42a.76.76,0,0,1,.06-.36.45.45,0,0,1,.12-.24l.12-.12a.22.22,0,0,1,.18-.06h.9v-.24h-1c-.12,0-.18.06-.3.12s-.18.12-.24.18-.12.18-.12.3a1,1,0,0,0-.06.42v.42a1.66,1.66,0,0,0,.06.54.72.72,0,0,0,.48.48.76.76,0,0,0,.36.06h.72Zm1.92-.78V34.9a1.66,1.66,0,0,0-.06-.54.6.6,0,0,0-.24-.3,1.17,1.17,0,0,0-.9,0,.6.6,0,0,0-.24.3,1.41,1.41,0,0,0-.12.48V35a.76.76,0,0,0,.06.36.31.31,0,0,0,.12.24c.06.06.18.12.24.18a.89.89,0,0,0,.42.06h.54l.18-.06V35.5h-1c-.06,0-.12-.06-.18-.06l-.12-.12a.21.21,0,0,0-.06-.12V35Zm-.3-.24h-1V34.6c0-.06,0-.12.06-.12s.12-.18.18-.24a.51.51,0,0,1,.42,0,.21.21,0,0,1,.12.06c.06.06.06.06.06.12s0,.12.06.12,0,.18.06.24Zm2.22,1.08V34.42c0-.06-.06-.18-.06-.24s-.12-.12-.18-.12a.54.54,0,0,0-.3-.06H794l-.18.06-.18.12v-.12h-.3v1.8h.3V34.42c.12-.06.24-.06.3-.12s.18-.06.24-.06a.22.22,0,0,1,.18.06l.12.12V35.8Zm2-.84V34.9a1.66,1.66,0,0,0-.06-.54.6.6,0,0,0-.24-.3,1.17,1.17,0,0,0-.9,0,.6.6,0,0,0-.24.3,1.41,1.41,0,0,0-.12.48V35a.76.76,0,0,0,.06.36.31.31,0,0,0,.12.24c.06.06.18.12.24.18a.89.89,0,0,0,.42.06h.54l.18-.06V35.5h-1c-.06,0-.12-.06-.18-.06l-.12-.12a.21.21,0,0,0-.06-.12V35Zm-.3-.24h-1V34.6c0-.06,0-.12.06-.12s.06-.06.06-.12.06-.06.12-.06a.51.51,0,0,1,.42,0,.21.21,0,0,1,.12.06c.06.06.06.06.06.12s0,.12.06.12a.22.22,0,0,1,.06.18Zm1.68-.54V34a.76.76,0,0,0-.36.06c-.12,0-.18.06-.3.12v-.12h-.3v1.8h.3V34.42l.12-.06.18-.06.18-.06Zm1.56,1.62V34.42c0-.06-.06-.12-.06-.18s-.06-.12-.12-.12a.22.22,0,0,0-.18-.06h-.84v.24h.78c.06,0,.12,0,.12.06s.06.06.06.12v.3h-.66c-.12,0-.18.06-.24.06l-.18.18a.45.45,0,0,0-.06.3v.06a.54.54,0,0,0,.06.3l.18.18a.54.54,0,0,0,.3.06H799l.18-.06.12-.06v.12h.3Zm-.3-.36-.12.06-.18.06h-.36c-.06,0-.06-.06-.12-.06s-.06-.12-.06-.18v-.24c0-.06.06-.06.12-.12s.12-.06.18-.06h.54Zm1.08.36V33.28h-.3v2.58Zm2.59,0V33.28h-.3V34l-.24-.06h-.24a.54.54,0,0,0-.3.06.45.45,0,0,0-.24.12c-.06.06-.12.18-.18.24a.89.89,0,0,0-.06.42v.3a1,1,0,0,0,.06.42.47.47,0,0,0,.24.24.76.76,0,0,0,.36.06h.18l.18-.06.12-.06v.06Zm-.3-.36a.22.22,0,0,1-.18.06c-.06,0-.18.06-.24.06a.85.85,0,0,1-.36-.12.87.87,0,0,1-.12-.42v-.6c0-.06.06-.12.12-.18a.19.19,0,0,1,.12-.06h.54ZM805,35V34.9a1.66,1.66,0,0,0-.06-.54.6.6,0,0,0-.24-.3,1.17,1.17,0,0,0-.9,0,.6.6,0,0,0-.24.3,1.41,1.41,0,0,0-.12.48V35a.76.76,0,0,0,.06.36.31.31,0,0,0,.12.24c.06.06.18.12.24.18a.89.89,0,0,0,.42.06h.54l.18-.06V35.5h-1c-.06,0-.12-.06-.18-.06l-.12-.12a.21.21,0,0,0-.06-.12V35Zm-.3-.24h-1V34.6c0-.06,0-.12.06-.12s.06-.06.06-.12.06-.06.12-.06a.51.51,0,0,1,.42,0,.21.21,0,0,1,.12.06c.06.06.06.06.06.12s0,.12.06.12a.22.22,0,0,1,.06.18ZM759.4,39.52V37.24h-.6l-.48.84-.06.12a.21.21,0,0,1-.06.12h0l-.06-.12-.06-.12-.48-.84H757v2.34h.54v-1.5h0l.06.12.06.12.3.54h.36l.3-.54.06-.12.06-.18h0v1.5Zm2.1-.78v-.18a.65.65,0,0,0-.12-.48.72.72,0,0,0-.3-.3,1.17,1.17,0,0,0-.9,0,.72.72,0,0,0-.3.3,1.13,1.13,0,0,0-.12.48v.18a.86.86,0,0,0,.42.78,1.17,1.17,0,0,0,.9,0,.86.86,0,0,0,.42-.78Zm-.54,0V39a.13.13,0,0,1-.12.12.3.3,0,0,1-.36,0l-.12-.12c0-.06-.06-.18,0-.24v-.42a.13.13,0,0,1,.12-.12.3.3,0,0,1,.36,0c.06,0,.06.06.12.12s.06.18,0,.24Zm2.52.78V37.06h-.54v.66h-.3a.76.76,0,0,0-.36.06.59.59,0,0,0-.42.42.89.89,0,0,0-.06.42v.24a1.32,1.32,0,0,0,.06.48.47.47,0,0,0,.24.24.76.76,0,0,0,.36.06h.18a.22.22,0,0,0,.18-.06l.12-.06v.06Zm-.54-.42-.12.06h-.12a.22.22,0,0,1-.18-.06c-.06,0-.06-.06-.12-.12v-.72c0-.06,0-.12.06-.12s.06-.06.12-.06h.36Zm2.64-.3v-.42c0-.06-.06-.18-.06-.24l-.18-.18a.45.45,0,0,0-.24-.12.76.76,0,0,0-.36-.06.86.86,0,0,0-.78.42,1.75,1.75,0,0,0-.12.54v.12a1,1,0,0,0,.06.42.83.83,0,0,0,.18.24.46.46,0,0,0,.3.12,1,1,0,0,0,.42.06h.3l.24-.06.18-.06v-.36h-1a.21.21,0,0,1-.12-.06c0-.06-.06-.06-.06-.12v-.18h0Zm-.54-.3h-.66v-.12c0-.06,0-.06.06-.12s.06-.06.12-.06.12-.06.18-.06h.18c.06,0,.06.06.12.06s.06.06.06.12-.12.12-.06.18Zm2-.36v-.48h-.18c-.06,0-.12.06-.18.06s-.12.06-.18.12v-.12H766v1.8h.54V38.2l.18-.06h.3Zm1.92,1.38V38.14a.22.22,0,0,0-.06-.18.13.13,0,0,0-.12-.12c-.06-.06-.12-.06-.18-.12s-.18-.06-.24-.06h-.18c-.06,0-.12.06-.18.06s-.12.06-.18.12v-.12h-.48v1.8h.54V38.2c.06,0,.12-.06.18-.06h.3a.06.06,0,0,1,.06.06v1.32Zm1,0v-1.8h-.54v1.8Zm0-2v-.42h-.54v.42Zm1.8,2v-.36h-.84l.84-1v-.42h-1.44v.36H771l-.84,1v.42Zm1.86,0V38.38a.54.54,0,0,0-.06-.3c0-.06-.06-.12-.12-.18a.31.31,0,0,0-.24-.12c-.12,0-.24-.06-.36-.06h-.36l-.18.06-.12.06v.3h.72c.06,0,.06,0,.12.06l.06.06v.18h-.48a.36.36,0,0,0-.24.06c-.06,0-.12.06-.18.06s-.12.12-.12.18a.36.36,0,0,0-.06.24V39a.64.64,0,0,0,.12.36.51.51,0,0,0,.42.12h.24c.06,0,.12-.06.18-.06a.21.21,0,0,0,.12-.06v.12Zm-.54-.36-.06.06-.12.06h-.24l-.06-.06v-.3a.06.06,0,0,1,.06-.06c.06,0,.06,0,.12-.06h.36Zm2.28.36v-.36h-.66c-.06,0-.06-.06-.12-.06s-.06-.06-.06-.12v-.66a.21.21,0,0,1,.06-.12c.06-.06.06-.06.12-.06h.66v-.36h-.54a1.32,1.32,0,0,0-.48.06.6.6,0,0,0-.24.3,1.17,1.17,0,0,0-.06.48v.18a1.32,1.32,0,0,0,.06.48.6.6,0,0,0,.24.3,1.13,1.13,0,0,0,.48.12h.54Zm.9,0v-1.8h-.54v1.8Zm0-2v-.42h-.6v.42Zm2.1,1.26v-.18a.65.65,0,0,0-.12-.48.72.72,0,0,0-.3-.3,1.17,1.17,0,0,0-.9,0,.72.72,0,0,0-.3.3,1.13,1.13,0,0,0-.12.48v.18a.86.86,0,0,0,.42.78,1.17,1.17,0,0,0,.9,0,.72.72,0,0,0,.3-.3A1.85,1.85,0,0,0,778.3,38.74Zm-.54,0V39a.13.13,0,0,1-.12.12.3.3,0,0,1-.36,0l-.12-.12c0-.06-.06-.18,0-.24v-.42a.13.13,0,0,1,.12-.12.3.3,0,0,1,.36,0c.06,0,.06.06.12.12s.06.18,0,.24Zm.36-1.68h-.6l-.42.48h.48Zm2.22,2.46V38.14a.22.22,0,0,0-.06-.18.13.13,0,0,0-.12-.12c-.06-.06-.12-.06-.18-.12a2.6,2.6,0,0,0-.3-.06h-.18c-.06,0-.12.06-.18.06s-.12.06-.18.12v-.12h-.54v1.8h.54V38.2c.06,0,.12-.06.18-.06h.3a.06.06,0,0,1,.06.06v1.32Z"/><path class="cls-4" d="M783.46,39.52l-.66-2.28h-.9l-.66,2.34h.6L782,39h.66l.18.6Zm-.84-1h-.48l.18-.6a.22.22,0,0,1,.06-.18V37.6h0v.18a.22.22,0,0,0,.06.18Zm2.7,1V37.06h-.54v.66h-.36a.76.76,0,0,0-.36.06.31.31,0,0,0-.24.12c-.06.06-.12.18-.18.24a.89.89,0,0,0-.06.42v.24a1.32,1.32,0,0,0,.06.48.47.47,0,0,0,.24.24.76.76,0,0,0,.36.06h.18a.22.22,0,0,0,.18-.06l.12-.06v.06Zm-.54-.42-.12.06h-.12a.22.22,0,0,1-.18-.06c-.06,0-.06-.06-.12-.12v-.72c0-.06,0-.12.06-.12s.06-.06.12-.06h.36Zm3.54.42V38.14a.22.22,0,0,0-.06-.18.13.13,0,0,0-.12-.12c-.06-.06-.12-.06-.18-.12s-.18-.06-.24-.06a.54.54,0,0,0-.3.06c-.12.06-.18.06-.3.12s-.06-.06-.12-.12-.06-.06-.12-.06h-.36c-.06,0-.12.06-.18.06s-.12.06-.18.12v-.12h-.54v1.8h.54V38.2l.12-.06.12-.06h.24a.06.06,0,0,1,.06.06v1.32h.54V38.14l.12-.06.12-.06h.24a.06.06,0,0,1,.06.06V39.4Zm1,0v-1.8h-.6v1.8Zm0-2v-.42h-.6v.42Zm2.1,2V38.14a.22.22,0,0,0-.06-.18.13.13,0,0,0-.12-.12c-.06-.06-.12-.06-.18-.12s-.18-.06-.24-.06h-.18c-.06,0-.12.06-.18.06s-.12.06-.18.12v-.12h-.48v1.8h.54V38.2c.06,0,.12-.06.18-.06h.3a.06.06,0,0,1,.06.06v1.32Zm1,0v-1.8h-.54v1.8Zm0-2v-.42h-.54v.42Zm1.8,1.5a.36.36,0,0,0-.06-.24l-.18-.18c-.12-.06-.18-.12-.3-.12l-.18-.06-.12-.06-.06-.06v-.12h.9v-.36l-.18-.06h-.78c-.06,0-.18.06-.24.06s-.12.12-.12.18a.51.51,0,0,0,0,.48l.18.18a.46.46,0,0,0,.3.12l.12.06.12.06.12.06a.06.06,0,0,1,.06.06v.12a.21.21,0,0,1-.12.06h-.84v.36h.66a1.78,1.78,0,0,0,.6-.12.54.54,0,0,0,.18-.42Zm1.44.54v-.36h-.36l-.06-.06v-1h.42v-.36h-.42v-.48h-.54v.48h-.3v.36h.3V39a.45.45,0,0,0,.06.3l.18.18a.54.54,0,0,0,.3.06h.42Zm1.44-1.38v-.48h-.18a.65.65,0,0,0-.42.18v-.12h-.54v1.8h.54V38.2l.18-.06h.42Zm1.68,1.38V38.38a.54.54,0,0,0-.06-.3c0-.06-.06-.12-.12-.18a.45.45,0,0,0-.24-.12c-.12,0-.24-.06-.36-.06h-.36l-.18.06-.12.06v.3H798c.06,0,.06,0,.12.06l.06.06v.18h-.48a.36.36,0,0,0-.24.06c-.06,0-.12.06-.18.06s-.12.12-.12.18-.06.18-.06.24V39a.64.64,0,0,0,.12.36.51.51,0,0,0,.42.12h.24c.06,0,.12-.06.18-.06a.21.21,0,0,0,.12-.06v.12Zm-.48-.36-.06.06-.12.06h-.24a.06.06,0,0,1-.06-.06v-.3l.06-.06c.06,0,.06,0,.12-.06h.36Zm2,.36v-.36h-.36l-.06-.06v-1h.42v-.36h-.42v-.48h-.54v.48H799v.36h.3V39a.45.45,0,0,0,.06.3l.18.18a.54.54,0,0,0,.3.06h.42Zm.85,0v-1.8h-.55v1.8Zm0-2v-.42h-.55v.42Zm2.1.24h-.54l-.24,1c0,.06-.06.18-.06.24a.36.36,0,0,1-.06.24l-.06-.24c0-.06-.06-.18-.06-.24l-.24-1h-.54l.54,1.8h.78Zm1.74,1.8V38.38a.54.54,0,0,0-.06-.3c0-.06-.06-.18-.12-.18a.31.31,0,0,0-.24-.12c-.12,0-.24-.06-.36-.06h-.42l-.18.06-.12.06v.3h.72c.06,0,.06,0,.12.06l.06.06v.18h-.42a.36.36,0,0,0-.24.06c-.06,0-.12.06-.18.06s-.12.12-.12.18-.06.18-.06.24V39a.64.64,0,0,0,.12.36.51.51,0,0,0,.42.12h.24c.06,0,.12-.06.18-.06a.21.21,0,0,0,.12-.06v.12Zm-.54-.36-.06.06-.12.06H804a.06.06,0,0,1-.06-.06v-.3a.06.06,0,0,1,.06-.06l.12-.06h.36Z"/><path class="cls-4" d="M749.07,30.76a.83.83,0,0,1-.72,1H736.53c-.42-.06-1-.12-1.8-.3a3.2,3.2,0,0,1-1.38-1,5.07,5.07,0,0,1,0-6.48,3.2,3.2,0,0,1,1.38-1l1.8-.3h11.58a.78.78,0,0,1,.9.72v.24a.83.83,0,0,1-.72,1H736.77a4.63,4.63,0,0,0-.9.12c-1.14.24-1.68,1.08-1.68,2.46a2.26,2.26,0,0,0,1.68,2.52,4.63,4.63,0,0,0,.9.12h11.28a.83.83,0,0,1,1,.72c.12,0,.12.06.06.18Z"/><path class="cls-4" d="M749.07,30.76a.83.83,0,0,1-.72,1H736.53c-.42-.06-1-.12-1.8-.3a3.2,3.2,0,0,1-1.38-1,5.07,5.07,0,0,1,0-6.48,3.2,3.2,0,0,1,1.38-1l1.8-.3h11.58a.78.78,0,0,1,.9.72v.24a.83.83,0,0,1-.72,1H736.77a4.63,4.63,0,0,0-.9.12c-1.14.24-1.68,1.08-1.68,2.46a2.26,2.26,0,0,0,1.68,2.52,4.63,4.63,0,0,0,.9.12h11.28a.83.83,0,0,1,1,.72c.12,0,.12.06.06.18Z"/><g class="cls-5"><rect class="cls-4" x="768.4" y="19.24" width="42.67" height="16.2"/></g><path class="cls-4" d="M749.07,30.76a.83.83,0,0,1-.72,1H736.53c-.42-.06-1-.12-1.8-.3a3.2,3.2,0,0,1-1.38-1,5.07,5.07,0,0,1,0-6.48,3.2,3.2,0,0,1,1.38-1l1.8-.3h11.58a.78.78,0,0,1,.9.72v.24a.83.83,0,0,1-.72,1H736.77a4.63,4.63,0,0,0-.9.12c-1.14.24-1.68,1.08-1.68,2.46a2.26,2.26,0,0,0,1.68,2.52,4.63,4.63,0,0,0,.9.12h11.28a.83.83,0,0,1,1,.72c.12,0,.12.06.06.18Z"/><path class="cls-4" d="M786.34,25.6v6.12h-2V25.6a.87.87,0,0,0-.78-.9H779.8c-.66,0-1,.36-1,1.14v5.88l-1.92-.06V25.72c0-.72-.3-1.08-1-1.08h-3.48c-.78,0-1.14.3-1.14,1v6.12h-2V25.6a2.87,2.87,0,0,1,2.88-2.88h3.78a3,3,0,0,0,3.9,0h3.66a2.88,2.88,0,0,1,2.88,2.88Z"/><path class="cls-4" d="M804.71,31.72h-2V26.38a1.93,1.93,0,0,0-.36-1.38,1.54,1.54,0,0,0-1.14-.36h-9a2.19,2.19,0,0,0-2.58,1.74,2,2,0,0,0,0,.84,2.19,2.19,0,0,0,1.68,2.46,4.63,4.63,0,0,0,.9.12h8.1a.84.84,0,0,1,1,.72v.24a.83.83,0,0,1-.73,1h-8.64c-.42-.06-1-.12-1.8-.3a3.2,3.2,0,0,1-1.38-1,4.58,4.58,0,0,1-1.14-3.24c0-2.4.9-3.78,2.7-4.26a7.45,7.45,0,0,1,2-.24H801a12.67,12.67,0,0,1,1.87.18c1.26.36,1.86,1.38,1.86,3.06Z"/><path class="cls-4" d="M767.8,32.68a2.87,2.87,0,0,1-2.88,2.88h-6.78c-.6,0-.9-.3-.9-1a.83.83,0,0,1,.72-1h6.66c.72,0,1.08-.3,1.08-1s-.36-1-1.14-1H755c-.42-.06-1-.12-1.8-.3a3.2,3.2,0,0,1-1.38-1,4.54,4.54,0,0,1-1.15-3.24c0-2.4.91-3.78,2.71-4.26a7.45,7.45,0,0,1,2-.24H764a12,12,0,0,1,1.86.18c1.26.3,1.86,1.32,1.86,3v2.88A2.73,2.73,0,0,1,767,30.7a2.86,2.86,0,0,1,.78,2Zm-2.1-3.84v-.3h0V26.38a1.93,1.93,0,0,0-.36-1.38,1.54,1.54,0,0,0-1.14-.36h-8.94a2.19,2.19,0,0,0-2.58,1.74,2,2,0,0,0,0,.84,2.19,2.19,0,0,0,1.68,2.46,4.05,4.05,0,0,0,.84.12h9.42c.72,0,1.08-.3,1.08-1Z"/><path class="cls-4" d="M646.75,29a2.28,2.28,0,0,0-.78-.54,2.65,2.65,0,0,0-1.92,0,1.83,1.83,0,0,0-.78.54,2.28,2.28,0,0,0-.54.78,2.49,2.49,0,0,0,0,1.86,2.31,2.31,0,0,0,1.38,1.32,2.65,2.65,0,0,0,1.92,0,2.52,2.52,0,0,0,.84-.54,2.28,2.28,0,0,0,.54-.78,2.49,2.49,0,0,0,.18-1,2.19,2.19,0,0,0-.18-.9C647.17,29.5,647,29.2,646.75,29Z"/><rect class="cls-4" x="665.78" y="16.3" width="0.36" height="29.47"/><rect class="cls-4" x="718.89" y="16.3" width="0.36" height="29.47"/><path class="cls-4" d="M571.8,38.5a10.57,10.57,0,0,1-7.68-3.24,11.37,11.37,0,0,1-3.06-7.86v-.06a10.84,10.84,0,0,1,10.8-11.16,11.31,11.31,0,0,1,8.4,3.48l.12.12L579,21.22l-.12-.12c-2.82-2.7-5.1-3.06-7-3.06a8.54,8.54,0,0,0-6.24,2.7,9.43,9.43,0,0,0-2.52,6.66v.06c0,5.28,3.84,9.36,8.82,9.36,2.76,0,4.86-1,7.2-3.24l.12-.12,1.32,1.32-.12.12c-3.42,3.18-6.3,3.6-8.64,3.6"/><path class="cls-4" d="M592,38.14H584.7V16.42H592c6.66,0,11.52,4.56,11.52,10.8v.06A10.51,10.51,0,0,1,600.3,35,11.29,11.29,0,0,1,592,38.14m-5.28-1.8H592a9.68,9.68,0,0,0,7-2.58,8.93,8.93,0,0,0,2.58-6.36v-.06A8.69,8.69,0,0,0,599,21a9.63,9.63,0,0,0-7-2.64h-5.34Z"/><polygon class="cls-4" points="607.75 16.48 612.85 16.48 618.61 25.66 624.31 16.48 629.47 16.48 629.47 38.2 624.67 38.2 624.67 23.98 618.61 33.28 618.49 33.28 612.43 24.1 612.43 38.2 607.75 38.2 607.75 16.48"/><polygon class="cls-4" points="640.75 27.1 633.49 16.48 639.07 16.48 643.63 23.5 648.19 16.48 653.65 16.48 646.39 27.1 653.96 38.2 648.37 38.2 643.51 30.7 638.59 38.2 633.19 38.2 640.75 27.1"/><path class="cls-4" d="M700.28,32.8c-.24-.24-.72-.36-.72-.54s.06-.6.06-.6a8.13,8.13,0,0,1,.12-1.2c.12-.6.3-1,.18-1.08s-.3-.18-.36-.42.12-.12-.12-.36-.84-.48-.84-.6-.06,0,.12-.18.24-.18.06-.3a3.22,3.22,0,0,0-.66-.3,8.29,8.29,0,0,1-1.44-.66.33.33,0,0,1-.18-.3c0-.12.12-.18.12-.36s-.12-.3-.06-.42.3-.42.3-.54a.85.85,0,0,0-.12-.36,1.6,1.6,0,0,1-.18-.72,2.15,2.15,0,0,0-.24-.66c-.12-.24-.12-.3-.12-.36s.24-.06.12-.3a2.61,2.61,0,0,0-1.14-.6c-.12.06-.06.36-.36.24a1.19,1.19,0,0,1-.66-.66c-.06-.3-.06-.48.06-.54s.18-.12.18-.24-.12-.12.06-.3.18-.12.18-.24a1.66,1.66,0,0,0,.06-.54c0-.18-.06,0-.18-.24s-.18-.24-.18-.24-.42.12-.42.24.12.06,0,.18-.3.12-.42.24,0,0-.12.18-.12.06-.3.18-.18.12-.18.3v.24c0,.12.36,0,.36.12s0,.12-.12.12,0,.12-.06.24-.06-.06-.12,0-.12.12-.06.12.12.06.06.12a.26.26,0,0,1-.3.06c-.12-.06-.18-.12-.24-.06s-.18.12-.12.18.18,0,.3.18.3.24.3.48.06.24.06.24l-.48-.3a1.66,1.66,0,0,0-.54-.06c-.18-.06-.3-.06-.48-.12s-.36-.12-.42-.12-.12.12-.12.18a2.46,2.46,0,0,1-.06.66c-.06.18-.18.3-.18.48s0,.3.12.3H691a1,1,0,0,0-.24.42c-.06.18-.3.24-.18.36s.12.12.06.18-.3-.06-.3.06V25c0,.12.18.12,0,.24a4.07,4.07,0,0,1-.54.36c-.06,0-.06.12-.18.18s-.18-.18-.24,0,0,.3-.12.36-.06.06-.24.06a.37.37,0,0,0-.3.18c-.18.18-.36.3-.54.48s-.24,0-.24.12,0,.24-.12.24-.06-.12-.12-.18-.12-.12-.18-.12a.31.31,0,0,0-.24.12c-.06.06,0,.06-.06.12s-.18-.06-.24-.06a.88.88,0,0,1-.24-.12.08.08,0,0,0,0,.12v.3a.6.6,0,0,1-.24.3.68.68,0,0,0-.18.48c-.06.12-.12.24,0,.3s.12.06.12.12a8.1,8.1,0,0,1-.66.54c-.12.06-.24.18-.18.24s.3.24.12.36-.36,0-.48.12,0,.12-.12.24-.18.18-.06.24-.06.24.18.24.42-.06.6.12a.61.61,0,0,1,.24.42,5,5,0,0,1-.12.6c-.06.18.06.18.3.24s.24.12.42.24.18.06.18.18a.61.61,0,0,0,.3.48c.18.06.24.06.3.12l.18.36c.06.12,0,.18-.12.18s-.18,0-.12.12a4.49,4.49,0,0,1,.24,1,2.46,2.46,0,0,0,.06.66c.06.24.06.3.3.36s.24.06.36.12,0,.36,0,.36.9.72,1.26,1,.12.3.54.3,2,.18,2.4.24h.66l2.22,1.26.6.42a10.23,10.23,0,0,1,1.14-1.14,1.67,1.67,0,0,1,1.08-.06,3.16,3.16,0,0,1,.72.18,1,1,0,0,1,.42.24s.6-1.44.78-2,0-.72,0-.72l-.3-.3a1.51,1.51,0,0,1,.12-.36c.12-.3.18-.3.12-.48s-.36-.24-.36-.6-.24-.42-.06-.6.06-.24.3-.3.24.06.24-.06S700.52,33,700.28,32.8Zm-7.56-.9a2.28,2.28,0,0,1-.54.78,2.52,2.52,0,0,1-.84.54,2.65,2.65,0,0,1-1.92,0A2.69,2.69,0,0,1,688,31.9,2.49,2.49,0,0,1,688,30a2.65,2.65,0,0,1,1.32-1.32,2.65,2.65,0,0,1,1.92,0,1.83,1.83,0,0,1,.78.54,2.28,2.28,0,0,1,.54.78,2.41,2.41,0,0,1,.18.9A1.31,1.31,0,0,1,692.72,31.9Zm5.16,1.38h-1V30.22l-1.32,2h0l-1.32-2v3.06h-1V28.6h1.14l1.26,2,1.26-2H698Z"/><path class="cls-4" d="M691.58,43.48a1.32,1.32,0,0,1-1-.42,1.7,1.7,0,0,1-.42-1h0a1.5,1.5,0,0,1,1.38-1.5h.06a1.41,1.41,0,0,1,1.08.48h0l-.18.18h0a1.4,1.4,0,0,0-.9-.42,1.18,1.18,0,0,0-.84.36,1,1,0,0,0-.3.9h0a1.25,1.25,0,0,0,1.14,1.26h0a1.42,1.42,0,0,0,1-.42h0l.18.18h0A1.89,1.89,0,0,1,691.58,43.48Z"/><path class="cls-4" d="M693.56,43.18h.72a1.22,1.22,0,0,0,.9-.36,1.18,1.18,0,0,0,.36-.84h0a1.18,1.18,0,0,0-.36-.84,1.32,1.32,0,0,0-.9-.36h-.72v2.4Zm.72.3h-1V40.6h1a1.41,1.41,0,0,1,1.5,1.32V42h0a1.32,1.32,0,0,1-.42,1,1.87,1.87,0,0,1-1.08.42Z"/><polygon class="cls-4" points="696.32 40.6 697.04 40.6 697.76 41.8 698.54 40.6 699.2 40.6 699.2 43.48 698.6 43.48 698.6 41.56 697.76 42.82 697.76 42.82 696.98 41.56 696.98 43.48 696.32 43.48 696.32 40.6"/><polygon class="cls-4" points="700.71 41.98 699.75 40.6 700.47 40.6 701.07 41.5 701.66 40.6 702.38 40.6 701.42 41.98 702.45 43.48 701.73 43.48 701.07 42.46 700.4 43.48 699.68 43.48 700.71 41.98"/><polygon class="cls-4" points="685.82 40.6 686.48 40.6 687.26 41.8 687.98 40.6 688.7 40.6 688.7 43.48 688.04 43.48 688.04 41.56 687.26 42.82 687.26 42.82 686.42 41.56 686.42 43.48 685.82 43.48 685.82 40.6"/><path class="cls-4" d="M682.52,42.1a2.13,2.13,0,0,1,.12-.6,1.26,1.26,0,0,1,.78-.78,1.85,1.85,0,0,1,1.14,0,1.26,1.26,0,0,1,.78.78,1.75,1.75,0,0,1,.12.54,2.13,2.13,0,0,1-.12.6,1.31,1.31,0,0,1-.3.48,3.33,3.33,0,0,1-.48.36,1.56,1.56,0,0,1-1.2,0,1.77,1.77,0,0,1-.84-.78A2,2,0,0,1,682.52,42.1Zm2.34,0a.9.9,0,0,0-.24-.66.78.78,0,0,0-1.14-.06l-.06.06a.94.94,0,0,0,0,1.32.78.78,0,0,0,1.14.06l.06-.06a.9.9,0,0,0,.24-.66Z"/><rect class="cls-4" x="689.48" y="40.6" width="0.12" height="2.88"/><path class="cls-4" d="M702.81,17.56a3.59,3.59,0,0,1,3.54,3.54V41a3.55,3.55,0,0,1-3.54,3.54H682.88A3.59,3.59,0,0,1,679.34,41V21.1a3.55,3.55,0,0,1,3.54-3.54Zm0-1.26H682.88a4.76,4.76,0,0,0-4.74,4.8V41a4.76,4.76,0,0,0,4.74,4.8h19.93a4.76,4.76,0,0,0,4.74-4.8V21.1A4.76,4.76,0,0,0,702.81,16.3Z"/><path class="cls-4" d="M690.44,29.44a1.7,1.7,0,0,0-1,.42,1.64,1.64,0,0,0,0,2.16,1.34,1.34,0,0,0,1.92.06.06.06,0,0,0,.06-.06,1.64,1.64,0,0,0,0-2.16A1.42,1.42,0,0,0,690.44,29.44Z"/><path class="cls-4" d="M586.44,42.34a1.66,1.66,0,0,1,.54.06,2.51,2.51,0,0,1,.6.24v.6A2.13,2.13,0,0,0,587,43a1.66,1.66,0,0,0-.54-.06,2.55,2.55,0,0,0-.66.12,1,1,0,0,0-.42.42,1.09,1.09,0,0,0,0,1.2,1.4,1.4,0,0,0,.42.42,1.19,1.19,0,0,0,.66.12,1.66,1.66,0,0,0,.54-.06,2.8,2.8,0,0,0,.6-.3v.6a2.51,2.51,0,0,1-.6.24,2,2,0,0,1-.6.06,1.9,1.9,0,0,1-1-.24,2.08,2.08,0,0,1-.66-.6,1.38,1.38,0,0,1-.24-.84,1.69,1.69,0,0,1,.24-.9,2.08,2.08,0,0,1,.66-.6A1.76,1.76,0,0,1,586.44,42.34Z"/><path class="cls-4" d="M588.78,42.4v3.3h-.66V42.4Z"/><path class="cls-4" d="M590,42.4v1.92a.86.86,0,0,0,.42.78,1,1,0,0,0,1,0,.72.72,0,0,0,.3-.3,1.75,1.75,0,0,0,.12-.54V42.4h.66v2a1.32,1.32,0,0,1-.42,1,1.85,1.85,0,0,1-1.14.36,1.66,1.66,0,0,1-.78-.18,1.06,1.06,0,0,1-.54-.48,1.6,1.6,0,0,1-.18-.72v-2Z"/><path class="cls-4" d="M594.42,42.4a1.56,1.56,0,0,1,.9.24,1.45,1.45,0,0,1,.6.6,2,2,0,0,1,.24.84,1.38,1.38,0,0,1-.24.84,1.3,1.3,0,0,1-.66.6,1.73,1.73,0,0,1-1,.18H593V42.4Zm-.06,2.82a1.43,1.43,0,0,0,.84-.3,1.28,1.28,0,0,0,0-1.68,1.18,1.18,0,0,0-.9-.3h-.66v2.34h.72Z"/><path class="cls-4" d="M598.26,42.4l1.44,3.3H599l-.36-.78h-1.5l-.3.78h-.66l1.38-3.3Zm-.84,2h1.08L598,43.06Z"/><path class="cls-4" d="M601.38,42.4a1.56,1.56,0,0,1,.9.24,1.45,1.45,0,0,1,.6.6,2,2,0,0,1,.24.84,1.38,1.38,0,0,1-.24.84,1.3,1.3,0,0,1-.66.6,1.73,1.73,0,0,1-1,.18h-1.32V42.4Zm-.06,2.82a1.43,1.43,0,0,0,.84-.3,1.28,1.28,0,0,0,0-1.68,1.18,1.18,0,0,0-.9-.3h-.66v2.34h.72Z"/><path class="cls-4" d="M606.31,42.4a1.56,1.56,0,0,1,.9.24,1.45,1.45,0,0,1,.6.6,2,2,0,0,1,.24.84,1.38,1.38,0,0,1-.24.84,1.3,1.3,0,0,1-.66.6,1.73,1.73,0,0,1-1,.18h-1.32V42.4Zm-.06,2.82a1.43,1.43,0,0,0,.84-.3,1.28,1.28,0,0,0,0-1.68,1.18,1.18,0,0,0-.9-.3h-.6v2.34h.66Z"/><path class="cls-4" d="M610.75,42.4v.48h-1.5v.84h1.44v.48h-1.44v1h1.56v.48h-2.22v-3.3Z"/><path class="cls-4" d="M613.09,42.4l1.08,1.32,1.08-1.32h.6v3.3h-.66V43.36h0l-1,1.14h-.12l-1-1.14h0V45.7h-.66V42.4Z"/><path class="cls-4" d="M618.61,42.4v.48h-1.5v.84h1.44v.48h-1.44v1h1.56v.48h-2.16v-3.3Zm-.3-1.08-.9.84h-.36l.48-.84Z"/><path class="cls-4" d="M619.69,42.4l.9,1.14.9-1.14h.78L621,44l1.44,1.74h-.78l-1-1.26-1,1.26h-.78L620.17,44l-1.32-1.56h.84Z"/><path class="cls-4" d="M623.41,42.4v3.3h-.66V42.4Z"/><path class="cls-4" d="M625.81,42.34a1.66,1.66,0,0,1,.54.06,2.51,2.51,0,0,1,.6.24v.6a2.13,2.13,0,0,0-.54-.24,1.66,1.66,0,0,0-.54-.06,2.55,2.55,0,0,0-.66.12,1,1,0,0,0-.42.42,1.09,1.09,0,0,0,0,1.2,1.4,1.4,0,0,0,.42.42,1.19,1.19,0,0,0,.66.12,1.66,1.66,0,0,0,.54-.06,2.8,2.8,0,0,0,.6-.3v.6a2.51,2.51,0,0,1-.6.24,2,2,0,0,1-.6.06,1.9,1.9,0,0,1-1-.24,2.08,2.08,0,0,1-.66-.6,1.38,1.38,0,0,1-.24-.84,1.69,1.69,0,0,1,.24-.9,2.08,2.08,0,0,1,.66-.6A1.76,1.76,0,0,1,625.81,42.34Z"/><path class="cls-4" d="M629.11,42.34a1.56,1.56,0,0,1,.9.24,2.08,2.08,0,0,1,.66.6,1.66,1.66,0,0,1-.54,2.28.21.21,0,0,1-.12.06,2,2,0,0,1-1.86,0,1.69,1.69,0,0,1-.9-1.5,1.38,1.38,0,0,1,.24-.84,1.6,1.6,0,0,1,.66-.6A1.9,1.9,0,0,1,629.11,42.34ZM628,44a2.13,2.13,0,0,0,.12.6,1.4,1.4,0,0,0,.42.42,1.08,1.08,0,0,0,.6.12,1.43,1.43,0,0,0,.84-.3.93.93,0,0,0,.3-.84,2.13,2.13,0,0,0-.12-.6,1.18,1.18,0,0,0-2,0,2.64,2.64,0,0,0-.12.6Z"/></g></g></svg>