<svg id="Capa_1" data-name="Capa 1" xmlns="http://www.w3.org/2000/svg" xmlns:xlink="http://www.w3.org/1999/xlink" viewBox="0 0 24 24"><defs><style>.cls-1,.cls-3{fill:none;}.cls-2{clip-path:url(#clip-path);}.cls-3{stroke:#df1e80;stroke-miterlimit:10;stroke-width:0.75px;}</style><clipPath id="clip-path"><rect class="cls-1" x="-136" y="77" width="1366" height="102"/></clipPath></defs><title>ico_telefono</title><g class="cls-2"><image width="1440" height="900" transform="translate(-146 -123) scale(0.96)" xlink:href="../../header_art.jpg"/></g><path class="cls-3" d="M15.75,21.33a7.66,7.66,0,0,1-4.14-1.15,19.22,19.22,0,0,1-7.73-9,6.59,6.59,0,0,1-.15-5A5.4,5.4,0,0,1,5.47,3.73c.27-.22.53-.47.81-.69A1.16,1.16,0,0,1,8,3a7.6,7.6,0,0,1,2.23,3.7,1.49,1.49,0,0,1-.48,1.47,12.25,12.25,0,0,1-1.17,1A1.39,1.39,0,0,0,7.94,11a10.81,10.81,0,0,0,1.21,2.18A11,11,0,0,0,12,16a1.7,1.7,0,0,0,2.62-.28c.24-.25.5-.46.76-.69a1.74,1.74,0,0,1,2.09-.26,8.85,8.85,0,0,1,2.88,2.42,1.26,1.26,0,0,1-.19,1.89,7,7,0,0,1-3.09,2C16.55,21.2,16,21.28,15.75,21.33Z"/></svg>