<svg id="Capa_1" data-name="Capa 1" xmlns="http://www.w3.org/2000/svg" xmlns:xlink="http://www.w3.org/1999/xlink" viewBox="0 0 59.4 59.4"><defs><style>.cls-1,.cls-3,.cls-4{fill:none;}.cls-2{clip-path:url(#clip-path);}.cls-3,.cls-4{stroke:#ea1e79;}.cls-3{stroke-width:0.84px;}.cls-4{stroke-width:0.6px;}</style><clipPath id="clip-path"><rect class="cls-1" x="-57.62" y="94.7" width="1366" height="102"/></clipPath></defs><title>ico_corralon_1</title><g class="cls-2"><image width="1440" height="900" transform="translate(-67.62 -105.3) scale(0.96)" xlink:href="../header_art.jpg"/></g><circle class="cls-3" cx="29.7" cy="29.7" r="29.28"/><path class="cls-4" d="M49.61,31.58a18.36,18.36,0,0,0-.24-4.27c-.21-.41-.92-.28-1-.67a4.64,4.64,0,0,0-.38-1l-2.91-.82a12.76,12.76,0,0,0-4.31-4.11,17,17,0,0,0-6.48-1.45c-1.67-.13-1.68,2.1-1.68,4.39v7.45h-.71V18.55a.94.94,0,1,0-1.87,0v8.62L29.79,27,19.12,18.28c-1.31-1.2-3.16-1.33-3.81-.62l-.08.1c-.65.71-.37,2.53.95,3.74l9.35,9.63H12.63v3.44h2.89a4.28,4.28,0,0,1,4-3.18,4.29,4.29,0,0,1,4,3.18H38.79a4.1,4.1,0,0,1,8,0h3.31a5.59,5.59,0,0,0,.41-2.13C50.52,32.05,49.59,32,49.61,31.58Zm-13-5a.46.46,0,0,1-.29-.1h-1.1a.2.2,0,1,1,0-.4h1.1a.42.42,0,0,1,.29-.11.37.37,0,0,1,.4.31C37,26.45,36.86,26.59,36.64,26.59ZM34,24.75s-.43-3.48,1.5-3.48h3.83c1.16,0,3.95,3.46,3.95,3.46Z"/><path class="cls-4" d="M15,27.3c0,.82-.12,1.28-.56,1.28h0c-.29,0-.59-.34-.59-.87v-.07c0-.18-.1-.32-.18-.32s-.18.14-.18.32v0c0,.71.37,1.29.8,1.29h.35c.43,0,.71-.43.71-1.14v-9c0-.18-.08-.32-.18-.32s-.17.14-.17.32Z"/><path class="cls-4" d="M15.77,26.6c0,.14-.26.25-.58.25s-.57-.11-.57-.25.26-.25.57-.25S15.77,26.46,15.77,26.6Z"/><path class="cls-4" d="M42.81,32.27a3.47,3.47,0,1,0,3.47,3.47A3.48,3.48,0,0,0,42.81,32.27Zm0,5.13a1.66,1.66,0,1,1,1.66-1.66A1.66,1.66,0,0,1,42.81,37.4Z"/><path class="cls-4" d="M19.53,32.27A3.47,3.47,0,1,0,23,35.74,3.48,3.48,0,0,0,19.53,32.27Zm0,5.13a1.66,1.66,0,1,1,1.66-1.66A1.66,1.66,0,0,1,19.53,37.4Z"/></svg>