<svg id="Capa_1" data-name="Capa 1" xmlns="http://www.w3.org/2000/svg" xmlns:xlink="http://www.w3.org/1999/xlink" viewBox="0 0 24 24"><defs><style>.cls-1{fill:none;}.cls-2{fill:#e11e82;}.cls-3{clip-path:url(#clip-path);}.cls-4{clip-path:url(#clip-path-2);}</style><clipPath id="clip-path"><rect class="cls-1" x="-130" y="85" width="1366" height="102"/></clipPath><clipPath id="clip-path-2"><rect class="cls-1" x="-130" y="-251" width="1366" height="102"/></clipPath><image id="image" width="1440" height="900" xlink:href="../../header_art.jpg"/></defs><title>ico_corralon</title><path class="cls-2" d="M15.16,10.43a.48.48,0,0,0-.24.06h-.63a.31.31,0,0,0,0,.61h.63a.5.5,0,0,0,.24.06.37.37,0,1,0,0-.73Zm-.06.36h.13A.15.15,0,0,1,15.1,10.79Z"/><path class="cls-2" d="M23.59,14.21a.93.93,0,0,1-.18-.12,12.51,12.51,0,0,0-.17-2.74.71.71,0,0,0-.44-.3c-.06,0-.17-.05-.18-.08a2.86,2.86,0,0,0-.25-.64l0-.07-1.83-.51A8,8,0,0,0,17.8,7.19a10.38,10.38,0,0,0-4-.92h-.12a.94.94,0,0,0-.72.23c-.51.47-.51,1.6-.51,2.68v4.47h-.09V6a.76.76,0,1,0-1.52,0v5L4.37,5.68A2.72,2.72,0,0,0,2.93,5a1.35,1.35,0,0,0-1.18.31l-.05.05a1.37,1.37,0,0,0-.21,1.21l0,0v4.1a.3.3,0,0,0-.24.27.32.32,0,0,0,.24.28v.16c0,.62-.12.62-.18.62s-.19-.13-.19-.41S1,11.26.86,11.26s-.28.17-.29.36h0c0,.53.3.95.67,1h.22c.37,0,.62-.35.62-.89v-.43c.15-.06.26-.16.26-.29s-.11-.23-.26-.28v-3a2.19,2.19,0,0,0,.21.23l5.54,5.7H0v2.49H2.14l0-.13a2.49,2.49,0,0,1,2.32-1.85A2.47,2.47,0,0,1,6.81,16l0,.13h9.78l0-.13a2.37,2.37,0,0,1,4.63,0l0,.13h2.3l.05-.1a3.52,3.52,0,0,0,.27-1.4C24,14.4,23.76,14.29,23.59,14.21ZM1.88,15.78H.38V14H3.54A2.9,2.9,0,0,0,1.88,15.78Zm21.54,0H21.6a2.72,2.72,0,0,0-5.23,0H7.11A2.9,2.9,0,0,0,5.45,14h3.2L2.54,7.68a2.1,2.1,0,0,1-.46-.57v-1a.37.37,0,0,0-.21-.36A.6.6,0,0,1,2,5.6l0-.06a1.06,1.06,0,0,1,.88-.19A2.28,2.28,0,0,1,4.14,6l6.64,5.39.12.13.3.3V6a.41.41,0,0,1,.41-.41A.41.41,0,0,1,12,6v8h.79V9.17c0-1,0-2,.4-2.42a.59.59,0,0,1,.46-.14h.11a10.11,10.11,0,0,1,3.86.88A7.84,7.84,0,0,1,20.25,10l0,.06,1.8.51a3,3,0,0,1,.19.5.51.51,0,0,0,.41.32c.11,0,.21.07.24.13a11.49,11.49,0,0,1,.13,2.58h0c0,.23.21.35.38.43l.18.1A4.45,4.45,0,0,1,23.42,15.78Z"/><path class="cls-2" d="M16.84,7.49H14.45a.93.93,0,0,0-.72.32,3.15,3.15,0,0,0-.38,2.05l0,.15h6.3l-.23-.28C19.14,9.35,17.61,7.49,16.84,7.49ZM13.68,9.66A2.63,2.63,0,0,1,14,8a.6.6,0,0,1,.46-.2h2.39c.41,0,1.42,1,2.09,1.81Z"/><path class="cls-2" d="M19,15.47a1.21,1.21,0,1,0,1.21,1.21A1.21,1.21,0,0,0,19,15.47Zm0,2.07a.86.86,0,1,1,.86-.86A.86.86,0,0,1,19,17.54Z"/><path class="cls-2" d="M19,14.35a2.34,2.34,0,1,0,2.34,2.33A2.34,2.34,0,0,0,19,14.35Zm0,4.32a2,2,0,1,1,2-2A2,2,0,0,1,19,18.67Z"/><path class="cls-2" d="M4.51,14.35a2.34,2.34,0,1,0,2.33,2.33A2.34,2.34,0,0,0,4.51,14.35Zm0,4.32a2,2,0,1,1,2-2A2,2,0,0,1,4.51,18.67Z"/><path class="cls-2" d="M4.51,15.47a1.21,1.21,0,1,0,1.21,1.21A1.21,1.21,0,0,0,4.51,15.47Zm0,2.07a.86.86,0,0,1,0-1.72.86.86,0,1,1,0,1.72Z"/><g class="cls-3"><use transform="translate(-140 -115) scale(0.96)" xlink:href="#image"/></g><g class="cls-4"><use transform="translate(-140 -451) scale(0.96)" xlink:href="#image"/></g></svg>