<svg id="Capa_1" data-name="Capa 1" xmlns="http://www.w3.org/2000/svg" xmlns:xlink="http://www.w3.org/1999/xlink" viewBox="0 0 65.36 65.36"><defs><style>.cls-1,.cls-4{fill:none;}.cls-2{clip-path:url(#clip-path);}.cls-3{clip-path:url(#clip-path-2);}.cls-4{stroke:#ea1e79;stroke-width:0.83px;}.cls-5{fill:#ea1e79;}</style><clipPath id="clip-path"><rect class="cls-1" x="-60.64" y="-167.32" width="1366" height="102"/></clipPath><clipPath id="clip-path-2"><rect class="cls-1" x="-60.64" y="168.68" width="1366" height="102"/></clipPath><image id="image" width="1440" height="900" xlink:href="../header_art.jpg"/></defs><title>ico_reglamento</title><g class="cls-2"><use transform="translate(-70.64 -367.32) scale(0.96)" xlink:href="#image"/></g><g class="cls-3"><use transform="translate(-70.64 -31.32) scale(0.96)" xlink:href="#image"/></g><circle class="cls-4" cx="32.68" cy="32.68" r="29.2"/><path class="cls-5" d="M31.55,35.63a5.88,5.88,0,0,0,7.58,8.94l0,0,6.4,6.4a.16.16,0,0,0,.24,0l1.15-1.14a.18.18,0,0,0,0-.24l-6.42-6.42a5.89,5.89,0,0,0-9-7.56Zm15,14.1-.89.89-4.8-4.8.89-.89Zm-6.95-6a5.55,5.55,0,1,1,0-7.84A5.55,5.55,0,0,1,39.63,43.71Z"/><path class="cls-5" d="M32.44,36.52a4.62,4.62,0,1,0,6.54,0A4.62,4.62,0,0,0,32.44,36.52Zm6.3,6.3a4.29,4.29,0,1,1,0-6.06A4.29,4.29,0,0,1,38.74,42.82Z"/><path class="cls-5" d="M39.24,25.13H24.31a.3.3,0,0,1,0-.59H39.24a.3.3,0,1,1,0,.59Z"/><path class="cls-5" d="M39.24,29.73H24.31a.3.3,0,0,1,0-.59H39.24a.3.3,0,1,1,0,.59Z"/><path class="cls-5" d="M39.24,32H24.31a.29.29,0,0,1,0-.58H39.24a.29.29,0,1,1,0,.58Z"/><path class="cls-5" d="M39.24,22.76H24.31a.29.29,0,0,1,0-.58H39.24a.29.29,0,1,1,0,.58Z"/><path class="cls-5" d="M39.24,27.36H24.31a.29.29,0,1,1,0-.58H39.24a.29.29,0,1,1,0,.58Z"/><path class="cls-5" d="M29.89,36.56H24.31a.29.29,0,0,1,0-.58h5.58a.29.29,0,1,1,0,.58Z"/><path class="cls-5" d="M28.92,38.8H24.31a.3.3,0,0,1,0-.59h4.61a.3.3,0,0,1,0,.59Z"/><path class="cls-5" d="M28.8,41.16H24.31a.29.29,0,0,1,0-.58H28.8a.29.29,0,0,1,0,.58Z"/><path class="cls-5" d="M32.63,34.2H24.31a.3.3,0,0,1,0-.59h8.32a.3.3,0,0,1,0,.59Z"/><path class="cls-5" d="M41.5,47.67H22.17V46.9H40.7l-.63-.62H21.49V16.77h1.2v.52a.77.77,0,0,0-.36.61.7.7,0,1,0,1.4,0,.69.69,0,0,0-.46-.64v-.49h2.34v.49a.67.67,0,0,0-.43.64.72.72,0,0,0,.69.72.75.75,0,0,0,.71-.72.71.71,0,0,0-.39-.61v-.52h2.2v.52a.76.76,0,0,0-.35.61.72.72,0,0,0,.68.72.7.7,0,0,0,.68-.72.72.72,0,0,0-.42-.64v-.49h2.33v.49a.66.66,0,0,0-.42.64.7.7,0,1,0,1.39,0,.75.75,0,0,0-.36-.61v-.52h2.21v.52a.65.65,0,0,0-.36.61.68.68,0,1,0,1.36,0,.7.7,0,0,0-.42-.64v-.49H37v.49a.68.68,0,0,0-.45.64.68.68,0,1,0,1.36,0,.68.68,0,0,0-.36-.61v-.52H39.8v.49a.67.67,0,0,0-.39.61.68.68,0,1,0,1.36,0,.64.64,0,0,0-.39-.61v-.49H42V43.84l.68.68v-27h.78V45.3l.58.58V17.16a.25.25,0,0,0-.26-.29h-1.1v-.39a.29.29,0,0,0-.29-.29h-2v-.75a.3.3,0,0,0-.59,0v.75H37.6v-.75a.29.29,0,1,0-.58,0v.75H34.68v-.75a.29.29,0,1,0-.58,0v.75H31.9v-.75a.3.3,0,0,0-.59,0v.75H29v-.75a.29.29,0,0,0-.58,0v.75H26.2v-.75a.3.3,0,0,0-.59,0v.75H23.28v-.75a.29.29,0,1,0-.58,0v.75H21.17a.29.29,0,0,0-.29.29V46.6a.29.29,0,0,0,.29.3h.39V48a.29.29,0,0,0,.29.29H42.13Z"/></svg>