<svg id="Capa_1" data-name="Capa 1" xmlns="http://www.w3.org/2000/svg" xmlns:xlink="http://www.w3.org/1999/xlink" viewBox="0 0 82.5 82.5"><defs><style>.cls-1{fill:none;}.cls-2{clip-path:url(#clip-path);}.cls-3{clip-path:url(#clip-path-2);}.cls-4{fill:#eb008b;}.cls-5{clip-path:url(#clip-path-3);}.cls-6{fill:#fff;}.cls-7{fill:url(#linear-gradient);}</style><clipPath id="clip-path"><rect class="cls-1" x="-641.75" y="-166" width="1366" height="102"/></clipPath><clipPath id="clip-path-2"><rect class="cls-1" x="-641.75" y="170" width="1366" height="102"/></clipPath><clipPath id="clip-path-3"><rect class="cls-1" width="82.5" height="82.5" rx="14.29" ry="14.29"/></clipPath><linearGradient id="linear-gradient" x1="-21.62" y1="40.26" x2="104.12" y2="40.26" gradientUnits="userSpaceOnUse"><stop offset="0" stop-color="#fff" stop-opacity="0"/><stop offset="0.18" stop-color="#fff" stop-opacity="0.4"/><stop offset="0.34" stop-color="#fff" stop-opacity="0.72"/><stop offset="0.45" stop-color="#fff" stop-opacity="0.92"/><stop offset="0.51" stop-color="#fff"/><stop offset="0.6" stop-color="#fff" stop-opacity="0.79"/><stop offset="0.8" stop-color="#fff" stop-opacity="0.37"/><stop offset="0.94" stop-color="#fff" stop-opacity="0.1"/><stop offset="1" stop-color="#fff" stop-opacity="0"/></linearGradient><image id="image" width="1440" height="900" xlink:href="../header_art.jpg"/></defs><title>ico_smartcdmx</title><g class="cls-2"><use transform="translate(-651.75 -366) scale(0.96)" xlink:href="#image"/></g><g class="cls-3"><use transform="translate(-651.75 -30) scale(0.96)" xlink:href="#image"/></g><rect class="cls-4" width="82.5" height="82.5" rx="14.29" ry="14.29"/><g class="cls-5"><path class="cls-6" d="M13.79,23.35A6.73,6.73,0,0,0,10,22a3.38,3.38,0,0,0-3.54,3.37c0,4.71,8,2.46,8,8.64a4.8,4.8,0,0,1-4.87,4.84A7.54,7.54,0,0,1,5.3,37.3V35.7c1.87,1.42,2.93,1.89,4.23,1.89a3.48,3.48,0,0,0,3.55-3.53c0-5-8-2.82-8-8.64A4.74,4.74,0,0,1,9.9,20.73a7.68,7.68,0,0,1,3.89,1.12Z"/><path class="cls-6" d="M31.47,21h1.3V38.62h-1.3V23h0l-6.34,8.26L18.73,23h-.05V38.62h-1.3V21h1.3l6.4,8.2Z"/><path class="cls-6" d="M51,38.62H49.65L47,32.51H38.8l-2.66,6.11H34.79l7.75-17.78h.71ZM42.88,23.06l-3.59,8.31H46.5Z"/><path class="cls-6" d="M57.34,21c4.11,0,5.56,2.2,5.56,4.55,0,2.05-1.06,3.47-3.2,4.3a7.94,7.94,0,0,1,2.24,2.69l3.79,6.11H64.2l-2.92-4.84c-2-3.34-2.66-3.62-4.67-3.62H54.34v8.46H53V21Zm-3,8.05h2.78c3,0,4.38-1.35,4.38-3.47s-1.35-3.44-4.43-3.44H54.34Z"/><path class="cls-6" d="M78.45,22.11h-6.3V38.62h-1.3V22.11h-6.3V21h13.9Z"/><path class="cls-6" d="M18.86,44.42a12,12,0,0,0-6-1.71c-4.18,0-7.33,3.34-7.33,7.82s3.13,7.77,7.5,7.77a11.94,11.94,0,0,0,6-1.82v1.43a12.39,12.39,0,0,1-6,1.65,8.75,8.75,0,0,1-8.93-9A8.87,8.87,0,0,1,13,41.44a13.74,13.74,0,0,1,5.9,1.48Z"/><path class="cls-6" d="M27.42,41.68c7.13,0,9.14,4.94,9.14,8.82,0,4.09-2.28,8.83-8.92,8.83h-6.1V41.68ZM22.84,58.19h4.72a7.3,7.3,0,0,0,7.6-7.69,7.32,7.32,0,0,0-7.67-7.68H22.84Z"/><path class="cls-6" d="M54.07,41.68h3.64V59.33H53.53v-11L49,53.84h-.64L43.84,48.3v11H39.66V41.68H43.3l5.39,6.55Z"/><path class="cls-6" d="M72.15,50.19l7.28,9.14H74l-4.55-5.82L65,59.33H59.66l7.1-9.14-6.71-8.51h5.41l4,5.2,3.93-5.2h5.32Z"/><path class="cls-7" d="M104.12,67.13H-21.62V13.38H104.12Zm-125.41-.68H103.79V14.07H-21.29Z"/></g></svg>