<svg id="Capa_1" data-name="Capa 1" xmlns="http://www.w3.org/2000/svg" xmlns:xlink="http://www.w3.org/1999/xlink" viewBox="0 0 24 24"><defs><style>.cls-1{fill:none;}.cls-2{fill:#e11e82;}.cls-3{clip-path:url(#clip-path);}.cls-4{clip-path:url(#clip-path-2);}</style><clipPath id="clip-path"><rect class="cls-1" x="-94" y="85" width="1366" height="102"/></clipPath><clipPath id="clip-path-2"><rect class="cls-1" x="-94" y="-251" width="1366" height="102"/></clipPath><image id="image" width="1440" height="900" xlink:href="../../header_art.jpg"/></defs><title>ico_puntos</title><path class="cls-2" d="M15.82,3.11H8.18A2.2,2.2,0,0,0,6,5.31V18.69a2.2,2.2,0,0,0,2.21,2.2h7.64A2.2,2.2,0,0,0,18,18.69V5.31A2.2,2.2,0,0,0,15.82,3.11Zm1.69,15.58a1.69,1.69,0,0,1-1.69,1.68H8.18a1.69,1.69,0,0,1-1.69-1.68V5.31A1.69,1.69,0,0,1,8.18,3.63h7.64a1.69,1.69,0,0,1,1.69,1.68Z"/><path class="cls-2" d="M9.48,13.08h5a1.25,1.25,0,0,0,.76-.26h0l.09-.07v0a1.26,1.26,0,0,0,.41-.93V6.25A1.26,1.26,0,0,0,14.52,5h-5A1.26,1.26,0,0,0,8.21,6.25v5.56A1.27,1.27,0,0,0,9.48,13.08Zm0-.52a.75.75,0,0,1-.36-.1,3.58,3.58,0,0,1,.73-2.24h.55a.79.79,0,0,0,.71-.27,1.71,1.71,0,0,0,.23-.6l0-.13-.09-.1a1.42,1.42,0,0,1-.33-.57l0-.11-.1,0a.21.21,0,0,1-.1-.12A.88.88,0,0,1,10.66,8l.1-.07,0-.17c-.12-.82,0-1.08.25-1.29a1.74,1.74,0,0,1,1.91,0c.31.22.42.65.33,1.32v.2l.1,0a1,1,0,0,1-.05.3.26.26,0,0,1-.1.13l-.09,0,0,.1a1.39,1.39,0,0,1-.31.54l-.08.1,0,.12a1.5,1.5,0,0,0,.32.75l.07,0a1,1,0,0,0,.55.09h.52a3.64,3.64,0,0,1,.72,2.27.75.75,0,0,1-.36.1Zm0-7h5a.75.75,0,0,1,.75.74v5.08a3.44,3.44,0,0,0-.82-1.59l-.08-.08h-.75a.57.57,0,0,1-.25,0,.92.92,0,0,1-.13-.32,2,2,0,0,0,.3-.55.65.65,0,0,0,.23-.32,1.68,1.68,0,0,0,.09-.58V7.67l-.1-.06A1.64,1.64,0,0,0,13.21,6a2.28,2.28,0,0,0-2.55,0,1.61,1.61,0,0,0-.46,1.61l-.07,0v.2a1.51,1.51,0,0,0,.1.6.75.75,0,0,0,.24.33,2.45,2.45,0,0,0,.32.57.74.74,0,0,1-.1.26s-.07.08-.27.07H9.65l-.08.07a3,3,0,0,0-.84,1.6V6.25A.75.75,0,0,1,9.48,5.51Z"/><path class="cls-2" d="M13.45,16.48h-.87l-.27-.83a.28.28,0,0,0-.5,0l-.27.83h-.87a.27.27,0,0,0-.23.15.27.27,0,0,0-.23-.15H9.34l-.27-.83a.28.28,0,0,0-.5,0l-.27.83H7.42a.26.26,0,0,0-.24.18.27.27,0,0,0,.09.3l.71.51-.27.83a.27.27,0,0,0,.09.3.29.29,0,0,0,.31,0l.71-.52.71.52a.26.26,0,0,0,.4-.3l-.27-.83.71-.51a.61.61,0,0,0,.07-.1.61.61,0,0,0,.07.1l.71.51L11,18.3a.27.27,0,0,0,.09.3.29.29,0,0,0,.31,0l.71-.52.71.52a.27.27,0,0,0,.15,0,.3.3,0,0,0,.16,0,.27.27,0,0,0,.09-.3l-.27-.83.71-.51a.27.27,0,0,0,.09-.3A.26.26,0,0,0,13.45,16.48Zm-4.25.68a.27.27,0,0,0-.1.29l.08.25L9,17.55a.21.21,0,0,0-.15-.05.24.24,0,0,0-.16.05l-.21.15.08-.25a.25.25,0,0,0-.09-.29L8.23,17h.26a.28.28,0,0,0,.25-.18l.08-.25.08.25a.26.26,0,0,0,.25.18h.26Zm3.24,0a.27.27,0,0,0-.1.29l.08.25-.21-.15a.25.25,0,0,0-.3,0l-.21.15.08-.25a.27.27,0,0,0-.1-.29L11.47,17h.26a.28.28,0,0,0,.25-.18l.08-.25.08.25a.28.28,0,0,0,.25.18h.26Z"/><path class="cls-2" d="M16.75,18l-.84-.25,0-.87a.27.27,0,0,0-.18-.25.26.26,0,0,0-.29.11l-.5.72-.84-.24a.26.26,0,0,0-.29.1.27.27,0,0,0,0,.31l.54.69-.5.72a.27.27,0,0,0,0,.31.28.28,0,0,0,.3.09l.82-.3.54.69a.25.25,0,0,0,.2.1h.09a.27.27,0,0,0,.18-.25l0-.88.82-.29a.28.28,0,0,0,.18-.26A.27.27,0,0,0,16.75,18Zm-1.17.36a.28.28,0,0,0-.17.26v.26l-.16-.21a.28.28,0,0,0-.21-.1H15l-.25.09.15-.21a.27.27,0,0,0,0-.31l-.16-.21L15,18a.26.26,0,0,0,.29-.11l.14-.21V18a.27.27,0,0,0,.19.24l.25.07Z"/><g class="cls-3"><use transform="translate(-104 -115) scale(0.96)" xlink:href="#image"/></g><g class="cls-4"><use transform="translate(-104 -451) scale(0.96)" xlink:href="#image"/></g></svg>