<svg id="Capa_1" data-name="Capa 1" xmlns="http://www.w3.org/2000/svg" xmlns:xlink="http://www.w3.org/1999/xlink" viewBox="0 0 24 24"><defs><style>.cls-1{fill:none;}.cls-2{fill:#e11e82;}.cls-3{clip-path:url(#clip-path);}.cls-4{clip-path:url(#clip-path-2);}</style><clipPath id="clip-path"><rect class="cls-1" x="-160" y="85" width="1366" height="102"/></clipPath><clipPath id="clip-path-2"><rect class="cls-1" x="-160" y="-251" width="1366" height="102"/></clipPath><image id="image" width="1440" height="900" xlink:href="../../header_art.jpg"/></defs><title>ico_multa</title><path class="cls-2" d="M9.1,6.34a1.39,1.39,0,0,0-1,1.36.16.16,0,0,0,.18.17h7.5a.16.16,0,0,0,.18-.13,1.51,1.51,0,0,0-1.14-1.41,1.74,1.74,0,0,1-1.31-1.66V4.16a1.53,1.53,0,0,0-3.05,0v.51A1.75,1.75,0,0,1,9.1,6.34ZM12,3.07a1,1,0,1,1-1,1A1,1,0,0,1,12,3.07Z"/><path class="cls-2" d="M16.42,4.73h-2a.35.35,0,0,0,0,.7h2a1.34,1.34,0,0,1,1.33,1.33V19.34a1.33,1.33,0,0,1-1.33,1.32H7.58a1.33,1.33,0,0,1-1.33-1.32V6.76A1.34,1.34,0,0,1,7.58,5.43h2a.35.35,0,0,0,0-.7h-2a2,2,0,0,0-2,2V19.34a2,2,0,0,0,2,2h8.84a2,2,0,0,0,2-2V6.76A2,2,0,0,0,16.42,4.73Z"/><path class="cls-2" d="M12,19.71a.38.38,0,0,0,.37-.37v-1a2.53,2.53,0,0,0,1.57-.57,2.42,2.42,0,0,0,.66-1.9,1.8,1.8,0,0,0-.54-1.47,4.28,4.28,0,0,0-1.69-.66V10.58c.46,0,1.12.08,2,.19l.06-.62L14,10.09c-.65-.09-1.2-.14-1.66-.16V8.66a.37.37,0,1,0-.74,0V9.94c-1.48.1-2.23.81-2.23,2.13a2.65,2.65,0,0,0,.16,1,1.4,1.4,0,0,0,.51.65,3.25,3.25,0,0,0,.77.38,6.35,6.35,0,0,0,.79.2v3.39c-.54,0-1.24-.09-2.08-.19l-.09.62.43.06a17.29,17.29,0,0,0,1.74.16v1A.38.38,0,0,0,12,19.71Zm1.45-4.84a1.33,1.33,0,0,1,.4,1.13,1.65,1.65,0,0,1-.46,1.27,1.76,1.76,0,0,1-1,.41V14.45A3.19,3.19,0,0,1,13.45,14.87Zm-2.87-1.7A1.3,1.3,0,0,1,10.15,12c0-.85.49-1.33,1.48-1.43v3A3.64,3.64,0,0,1,10.58,13.17Z"/><g class="cls-3"><use transform="translate(-170 -115) scale(0.96)" xlink:href="#image"/></g><g class="cls-4"><use transform="translate(-170 -451) scale(0.96)" xlink:href="#image"/></g></svg>